<svg height='100px' width='100px'  fill="#000000" xmlns:dc="http://purl.org/dc/elements/1.1/" xmlns:cc="http://creativecommons.org/ns#" xmlns:rdf="http://www.w3.org/1999/02/22-rdf-syntax-ns#" xmlns:svg="http://www.w3.org/2000/svg" xmlns="http://www.w3.org/2000/svg" xmlns:sodipodi="http://sodipodi.sourceforge.net/DTD/sodipodi-0.dtd" xmlns:inkscape="http://www.inkscape.org/namespaces/inkscape" version="1.1" x="0px" y="0px" viewBox="0 0 100 100"><g transform="translate(0,-952.36218)"><path d="m 71.213192,981.14899 c -1.17153,-1.17155 -3.07107,-1.17158 -4.24264,0 l -16.97057,16.97058 -16.970561,-16.97059 c -1.17156,-1.17156 -3.07103,-1.1716 -4.24264,0 -1.17153,1.17153 -1.17157,3.07107 10e-6,4.24264 l 16.970561,16.97058 -16.970571,16.9706 c -1.17157,1.1715 -1.17153,3.0711 0,4.2426 1.17161,1.1716 3.07107,1.1716 4.24265,0 l 16.970561,-16.9706 16.97056,16.9706 c 1.17157,1.1716 3.0711,1.1715 4.24263,0 1.17161,-1.1716 1.17158,-3.0711 0,-4.2426 l -16.97056,-16.9706 16.97057,-16.97058 c 1.17156,-1.17157 1.17161,-3.07104 0,-4.24263 z" style="text-indent:0;text-transform:none;direction:ltr;block-progression:tb;baseline-shift:baseline;color:#000000;enable-background:accumulate;" fill="#000000" fill-opacity="1" stroke="none" marker="none" visibility="visible" display="inline" overflow="visible"></path></g></svg>