<svg xmlns="http://www.w3.org/2000/svg" viewBox="0 0 466.47 422.17"><defs><style>.cls-1{fill:#fff;}</style></defs><title>logo_airbnfood_1</title><g id="Calque_2" data-name="Calque 2"><g id="Calque_1-2" data-name="Calque 1"><path class="cls-1" d="M39.22,97.4C44.94,83.95,56.5,74,67.51,64.8a250,250,0,0,1,35.65-24.69,260,260,0,0,1,80.29-29.69c30.35-5.81,62.59-6.48,92.84.26,16.15,3.6,31.58,9.67,46.72,16.24,14.18,6.16,28.49,12.3,42,19.87,25,14,49.92,36.83,51,67.52,1,29.27-20.52,53.69-45,66.76-28,14.94-61.61,20-92.81,23.07a482.91,482.91,0,0,1-99.31-.4c-30.65-3.29-61.38-10.05-89.45-23.09C76,174.43,62,167.06,51.69,156.32A59.42,59.42,0,0,1,38.18,97.9c1.13-3.7-4.66-5.28-5.79-1.6-8.6,28.17,2.94,57,26.41,73.89,26.08,18.73,58.46,29.17,89.71,35.1,34,6.45,69,8.19,103.54,6.7,34.17-1.48,70-5.55,102.31-17.16,27.61-9.9,53.21-28.09,63.62-56.56,10.34-28.29-1.57-57.37-22.66-77.18C383.49,50,369.25,41.74,354.7,34.69c-14.93-7.24-30.22-14-45.68-20C276.88,2.12,242.9-2.06,208.58.92a265.33,265.33,0,0,0-87.34,23.16C93.89,36.6,67,54,46.37,76.17A63.14,63.14,0,0,0,34,94.37c-1.49,3.51,3.67,6.57,5.18,3Z"/><path class="cls-1" d="M31.52,124.49c-7.75-.21-15.12,5.23-16.29,13.11S19.59,152.78,27,154.85l-.72-5.48C14.79,156,1.68,164.38.13,178.92c-1.28,11.95,7.26,20.6,17.57,24.91a54.48,54.48,0,0,0,8.2,2.67c2.38.58,7.43.4,9.31,1.76,2.59,1.87.42,6.66.57,9.34a14.16,14.16,0,0,0,2.9,7.58c8.12,10.9,22.68,6.89,30.91-1.47l-5-2.92c-3.31,10.06.35,21.89,9.4,27.72s21.25,4.17,29.14-2.92l-5-1.32c3.08,8.29,8.51,16,17,19.35,7.18,2.84,16.14,1.77,22-3.51,3.43-3.12,4.3-8.25,7.91-11,3.29-2.5,6.79-3.49,9.36-7a18.69,18.69,0,0,0,.37-21.46L150,224.31c11,9.27,27.8,8.74,37.95-1.64L183.22,219c-5.93,12.12,2.4,25.82,15,28.68,16.15,3.66,29.85-7.1,40.18-18.15l-5-1.32c3.62,17.4,26.18,26.52,40.87,16.49l-4.41-1.79c3.16,11.55,11.06,21.91,22.42,26.35a30.61,30.61,0,0,0,30.6-5.16,26.23,26.23,0,0,0,5.19-6c1.76-2.78,1.92-5.89,5.61-5.86,5.61,0,10.41.47,15.85-1.55,10.59-3.93,19-12.85,21.3-24l-4.41,1.79c7.41,5.11,16.1-2.85,16.87-10.46.56-5.58-2.11-10.8-3.75-16-1-3.16-3.07-10,2.78-9,3,.51,4.78,4.17,6.09,6.45,4.64,8,12.47,14.18,22.08,9.51C419,205,421,193.68,415.45,186.39l-4.1,4.1c8.93,4.5,19.9,4,27.82-2.44A25.59,25.59,0,0,0,446.9,177a25.2,25.2,0,0,0,1.48-7c.2-3.12-1.19-7.13,1.78-9.25,1.92-1.37,4.37-2,6.33-3.44a26.05,26.05,0,0,0,4.68-4.34,22,22,0,0,0,5.24-12.18c.73-8.9-5.11-17.56-13.86-19.64l1.32,5c4.29-5.11,8.84-11.47,6.06-18.41-1.89-4.7-6.7-7-11.54-7.42-15.63-1.19-21,14.73-30.43,23.76-2.8,2.67,1.45,6.91,4.24,4.24,6.43-6.14,10.42-17.05,18.76-20.8,3.23-1.45,7.79-2,11-.15,6.13,3.5.73,10.88-2.33,14.53-1.37,1.63-1,4.45,1.32,5,8.44,2,11.59,11.58,7.83,18.93a20,20,0,0,1-8.92,8.48c-2.49,1.25-5.18,2-6.77,4.44-2,3.08-.64,6.42-.67,9.79A19.68,19.68,0,0,1,438.58,180c-5.59,7.62-15.93,9.49-24.21,5.32-2.39-1.2-6.09,1.5-4.1,4.1,6.84,9-4.49,20.89-13,12.65-5.49-5.32-6.62-14.58-15.89-15.11-7.87-.45-9.91,7.33-8.49,13.69,1,4.48,3.25,8.6,4.13,13.1.72,3.72-1.91,13.55-7.55,9.65a3,3,0,0,0-4.41,1.79,27.49,27.49,0,0,1-19.62,20.62c-5.13,1.43-9.33,0-14.38.12s-5.68,5.08-7.81,8.68c-5.08,8.6-16.55,12.5-26,10-11-2.9-18.68-12.63-21.59-23.27a3,3,0,0,0-4.41-1.79c-11.61,7.93-29.19.87-32.06-12.91a3,3,0,0,0-5-1.32c-7.72,8.25-17,16.76-29,17.08-10.33.28-22.34-9.1-16.84-20.35,1.44-2.94-2.21-6.19-4.71-3.64-7.73,7.91-20.91,8.83-29.46,1.64-2.41-2-6.8.64-4.71,3.64,3.54,5.08,3.18,12.31-1.55,16.61-2.21,2-5.27,2.74-7.54,4.7s-3.3,4.61-4.81,7.22c-3.51,6-10.72,8.28-17.31,6.2-7.18-2.27-11.91-9-14.42-15.75a3,3,0,0,0-5-1.32c-5.88,5.28-15.15,6.47-21.87,2s-9.13-13.39-6.64-20.94c1-2.89-3-5-5-2.92-4.21,4.28-10.43,8-16.63,5.93a10.64,10.64,0,0,1-6.49-6c-.9-2.53-.06-5,.15-7.54.88-10.67-10.09-9.66-17.54-11.84C16,197.42,6,191.72,6,181.25c0-13.25,13.33-20.94,23.36-26.7a3,3,0,0,0-.72-5.48c-11.2-3.12-8.67-18.89,2.88-18.58,3.86.1,3.86-5.9,0-6Z"/><path class="cls-1" d="M141.54,247c41.5,24.92,94.76,26.53,137.76,4.38,3.43-1.77.4-6.95-3-5.18-41.1,21.18-92.09,19.41-131.7-4.38-3.32-2-6.34,3.19-3,5.18Z"/><path class="cls-1" d="M134.37,259.28c46.95,23.94,104.67,22.8,150.59-3.1,3.36-1.9.34-7.08-3-5.18-44,24.82-99.52,26.06-144.53,3.1-3.43-1.75-6.47,3.42-3,5.18Z"/><path class="cls-1" d="M326.48,254c17.09,19,42.52,10.31,62.18.46,9.54-4.78,18.55-11.57,23.36-21.35,5.1-10.39,5.41-22.2,4.67-33.53-.25-3.83-6.25-3.86-6,0,.64,9.83.7,20.19-3.35,29.38-4,9-11.77,15.12-20.32,19.61-17.29,9.07-40.94,18.25-56.29,1.19-2.59-2.88-6.82,1.38-4.24,4.24Z"/><path class="cls-1" d="M321.23,261.32c5.27,12.53,18.66,17.11,31.47,15.83,7.84-.79,15.47-3.08,23-5.3a228.35,228.35,0,0,0,22.4-7.47c12.13-5,21-13.16,24.16-26.23,3.46-14.46,1.62-30.45-1.23-44.84-.75-3.78-6.53-2.18-5.79,1.6,2.46,12.41,4,26,1.85,38.6-2.1,12.2-9,20.12-20.25,24.94s-23.65,8.3-35.59,11.14c-11.63,2.76-28.63,3.48-34.24-9.86-1.47-3.51-7.28-2-5.79,1.6Z"/><path class="cls-1" d="M426,185c-14.22,11.19,3,27.44,6.92,38.6,6.3,18-2.85,36.41-15.19,49.26-24.79,25.82-60.77,36.85-94.93,43.59-20.12,4-40.47,6.75-60.87,8.84s-40.74,4-61.11,4.27-40.1-4-59.86-9c-17.41-4.33-34.82-9.27-51.23-16.61-17.45-7.8-35.93-18.67-47.35-34.42-6.89-9.5-8.34-19.87-8.68-31.32s-.52-22.71-.6-34.06c0-3.86-6-3.87-6,0q.11,16.09.54,32.17c.25,9.22.57,18.47,4.29,27.06,7,16.1,22.68,28,37.33,36.75,15.31,9.16,32.19,15.52,49.24,20.58,18.8,5.59,38.24,10.69,57.68,13.36,21.36,2.94,43.09.84,64.47-.88,20.9-1.68,41.77-4,62.48-7.24,36.36-5.75,74.62-14,104.68-36.53,15.24-11.41,29.53-26.94,32.51-46.45a42.83,42.83,0,0,0-4.64-27.63c-3.95-7-14.71-18.86-5.45-26.14,3-2.39-1.24-6.61-4.24-4.24Z"/><path class="cls-1" d="M31.56,259.59c-5.31.09-8.86,3.83-10.42,8.72-2.21,6.95,2,15-2,21.34-2.78,4.41-8.65,8.05-7.19,14.09.56,2.29,2.18,3.89,4,5.3,3.15,2.51,3.84,4.35,4.28,8.3.49,4.41.67,9.47,4.73,12.24,3.72,2.54,8.12,1.44,11.84-.45,3-1.53,9.53-7.67,11.84-3.14,1.48,2.9,1.86,6.51,3.2,9.54a27.57,27.57,0,0,0,5.48,8.3c4.12,4.15,10.18,6.68,16.06,5.66a19.08,19.08,0,0,0,7.85-3.66c2.36-1.69,5.67-5.28,8.77-4.77,4.79.78,2.53,11.57,3.48,15.26a10.74,10.74,0,0,0,11.43,8.08c7.31-.42,10.9-6.25,16.39-10,1.87-1.29,4.73-3.2,6.36-.42.69,1.17.48,3.39.69,4.73A12,12,0,0,0,132,366c4.28,4,10.44,4.51,15.74,2.52a25.16,25.16,0,0,0,7.37-4.51c3.06-2.6,7.89-8.64,11.17-3.09,1.41,2.39,1.38,5.61,2.76,8.11a15.82,15.82,0,0,0,5.23,5.55,16.39,16.39,0,0,0,14.86,1.64c6.63-2.7,9.39-9.87,15.42-13.23,5.81-3.23,8,1.22,10.55,5.42a17.33,17.33,0,0,0,5.48,5.79,18.5,18.5,0,0,0,15.67,1.76,17.24,17.24,0,0,0,6.6-4.36,34.89,34.89,0,0,1,2.92-3.14c3.07-2.42,5.7-.46,8.19,1.68,8.64,7.4,20.29,18.09,32.36,10.64a14,14,0,0,0,5-5.5c1.6-3,2.34-9.91,5.93-11.24,3-1.11,6.88,3.77,9.19,5.43a44.16,44.16,0,0,0,10,5.46c11.39,4.35,26,1.77,32.24-9.65a19.41,19.41,0,0,0,2.3-8.06c.33-4.49-.21-8.47,4.78-10.06s10.46-2,13.1-7.29c2.23-4.43-.48-17.3,7.1-15.47,6.43,1.55,10.78,6.6,17.83,6.29a18.45,18.45,0,0,0,13.85-7.33c1.8-2.46,2.22-6,4.28-8.21,3-3.23,8.39-2.31,12.13-1.28,7.06,1.94,13.57,4.39,20.81,1.74a22.59,22.59,0,0,0,12.87-11.66c2.41-5.32,2.5-11.68-1.2-16.43-1.81-2.31-4.48-3.89-6.21-6.23-2.65-3.59-.57-6.65,1.64-9.78,3.4-4.8,6.18-9.59,4.28-15.64a13.44,13.44,0,0,0-11.35-9.44,14.28,14.28,0,0,0-13.51,7.17c-2,3.33,3.21,6.35,5.18,3,4.29-7.23,15.8-4,14.18,4.79-1,5.48-6.66,8.95-7.71,14.56-.92,4.9,1.91,8.58,5.26,11.75,2.46,2.32,4.8,4.23,5.11,7.86.35,4.13-1.81,8.1-4.75,10.87-11.51,10.85-24.65-3.91-37.21,1.86-6,2.76-5.64,8.89-10,13-5.58,5.32-12,3.1-17.89,0-4.16-2.2-9.26-4.69-13.87-2.19-4.41,2.4-5.08,7.22-5.32,11.75-.16,3,.08,6.46-2.83,8.29-2.32,1.45-5.45,1.54-8,2.39-4.78,1.6-7.69,4.74-8.35,9.81-.41,3.17.11,6.36-1.07,9.41a15.67,15.67,0,0,1-6.75,7.62c-6.37,3.8-13.93,3.17-20.51.26A42,42,0,0,1,307.8,363c-2.2-1.75-4.32-4.24-7.11-5-5.13-1.48-9.63,2.61-11.73,6.88-1.41,2.88-1.82,6.26-3.76,8.87-2.05,2.76-5.55,3.63-8.87,3.36-7.12-.58-12.47-6.18-17.51-10.65-3.74-3.32-8.06-6.9-13.33-4.86-5.64,2.18-7.51,8.75-14.11,9.33a12,12,0,0,1-9.13-3c-2.33-2.2-3.19-5.48-5.18-8-3.41-4.24-8.5-5.13-13.46-3.16C198,359,195,364.1,190.76,368c-5,4.52-13,4.36-16.52-2-2.34-4.31-1.83-10-6.66-12.75s-9.59.18-13.29,3.4c-4.62,4-14.17,11.84-19.15,3.64-2.68-4.42-.28-10.49-6.14-13.11-4.76-2.13-9.89,1-13.4,4.08-2.65,2.32-5,5.25-8.38,6.52-4.43,1.66-7.86-.4-8.3-5-.41-4.35.7-9.07-1.44-13.13a9,9,0,0,0-10.19-4.45c-5.61,1.43-9.09,7.22-14.75,8.37-7.93,1.6-13.71-5.91-16.11-12.47-1.62-4.41-1.89-10.39-6.92-12.41-3.42-1.37-6.94.2-9.94,1.89-2.73,1.53-8.65,6.69-11.74,3.69-2.87-2.79-1.51-10-3-13.73a11.91,11.91,0,0,0-3.52-4.82c-1.06-.91-2.45-1.52-3-2.86-.89-2.09.62-3.57,2-5.24,3.76-4.53,6.55-8.24,6.56-14.39,0-4.4-3-17.46,4.66-17.59,3.86-.06,3.87-6.06,0-6Z"/><path class="cls-1" d="M36.37,323c-.79,14.86-.67,30.32,10,41.89,10.27,11.09,25.71,18.47,39,25.16a302.69,302.69,0,0,0,189.48,27.29,504.88,504.88,0,0,0,52.54-12.92c16.15-4.75,32.77-9.19,47.94-16.61A87.68,87.68,0,0,0,424.46,311c.07-3.86-5.93-3.86-6,0-.48,27.81-15.71,54.31-39.83,68.32-13.79,8-29.41,12.31-44.57,16.89-16.06,4.85-32.23,9.42-48.64,13-60.65,13.08-124.31,7.55-181.41-17a266.32,266.32,0,0,1-43.49-23.3c-7.48-5-14-11.15-16.64-20-2.48-8.32-2-17.21-1.51-25.77.21-3.86-5.8-3.85-6,0Z"/><path class="cls-1" d="M99.14,103.8v-1.43a3,3,0,1,0-6,0v1.43a3,3,0,0,0,6,0Z"/><path class="cls-1" d="M141.75,66.88h1.43a3,3,0,0,0,0-6h-1.43a3,3,0,0,0,0,6Z"/><path class="cls-1" d="M258.65,75.43c3.86,0,3.87-6,0-6s-3.87,6,0,6Z"/><path class="cls-1" d="M247.24,146.71c3.86,0,3.87-6,0-6s-3.87,6,0,6Z"/><path class="cls-1" d="M141.75,151c3.86,0,3.87-6,0-6s-3.87,6,0,6Z"/><path class="cls-1" d="M205.21,94.55,203.78,96a3,3,0,1,0,4.24,4.24l1.43-1.43a3,3,0,1,0-4.24-4.24Z"/><path class="cls-1" d="M218.73,42.65c3.86,0,3.87-6,0-6s-3.87,6,0,6Z"/><path class="cls-1" d="M365.57,86.84c3.86,0,3.87-6,0-6s-3.87,6,0,6Z"/><path class="cls-1" d="M345.76,142.29v-1.43a3,3,0,0,0-6,0v1.43a3,3,0,0,0,6,0Z"/><path class="cls-1" d="M314.25,101.09c3.86,0,3.87-6,0-6s-3.87,6,0,6Z"/><path class="cls-1" d="M280,178.07c3.86,0,3.87-6,0-6s-3.87,6,0,6Z"/><path class="cls-1" d="M198,167.25l-1.43-1.43a3,3,0,0,0-4.24,4.24l1.43,1.43a3,3,0,1,0,4.24-4.24Z"/><path class="cls-1" d="M291.44,66.88c3.86,0,3.87-6,0-6s-3.87,6,0,6Z"/><path class="cls-1" d="M137.48,102.52c3.86,0,3.87-6,0-6s-3.87,6,0,6Z"/><path class="cls-1" d="M100.41,143.86c3.86,0,3.87-6,0-6s-3.87,6,0,6Z"/></g></g></svg>