<svg height='100px' width='100px'  fill="#000000" xmlns="http://www.w3.org/2000/svg" version="1.1" viewBox="0 0 32 32" x="0px" y="0px"><title>chevron-left</title><path d="M24.566 1.142c0-0.63-0.511-1.142-1.142-1.142-0.321 0-0.611 0.132-0.819 0.346v0l-14.842 14.842c-0.207 0.207-0.335 0.492-0.335 0.807s0.128 0.601 0.335 0.807l14.842 14.842c0.208 0.217 0.501 0.351 0.824 0.351 0.631 0 1.142-0.511 1.142-1.142 0-0.324-0.135-0.616-0.351-0.824l-14.035-14.035 14.035-14.035c0.214-0.208 0.346-0.498 0.346-0.82v0z"></path></svg>